<svg width="202" height="130" viewBox="0 0 202 130" fill="none" xmlns="http://www.w3.org/2000/svg">
<path d="M54.8755 129.8C45.9955 129.8 38.2555 128.6 31.6555 126.2C25.0555 123.8 19.5355 120.5 15.0955 116.3C10.7755 112.1 7.41554 107.18 5.01554 101.54C2.61554 95.78 1.23554 89.6 0.875542 83C0.635542 79.76 0.455542 75.92 0.335543 71.48C0.335543 67.04 0.335543 62.6 0.335543 58.16C0.455542 53.6 0.635542 49.64 0.875542 46.28C1.23554 39.68 2.61554 33.62 5.01554 28.1C7.53554 22.46 11.0755 17.6 15.6355 13.52C20.1955 9.32 25.7155 6.08 32.1955 3.79999C38.6755 1.39999 46.2355 0.199993 54.8755 0.199993C63.3955 0.199993 70.8955 1.39999 77.3755 3.79999C83.9755 6.08 89.4955 9.32 93.9355 13.52C98.4955 17.6 101.976 22.46 104.376 28.1C106.896 33.62 108.396 39.68 108.876 46.28C109.116 49.64 109.236 53.6 109.236 58.16C109.236 62.6 109.236 67.04 109.236 71.48C109.236 75.92 109.116 79.76 108.876 83C108.396 89.6 106.956 95.78 104.556 101.54C102.276 107.18 98.9155 112.1 94.4755 116.3C90.0355 120.5 84.5155 123.8 77.9155 126.2C71.3155 128.6 63.6355 129.8 54.8755 129.8ZM54.8755 99.02C59.6755 99.02 63.1555 97.46 65.3155 94.34C67.4755 91.22 68.6155 87.14 68.7355 82.1C68.9755 78.62 69.0955 74.84 69.0955 70.76C69.0955 66.68 69.0955 62.6 69.0955 58.52C69.0955 54.32 68.9755 50.6 68.7355 47.36C68.6155 42.56 67.4755 38.6 65.3155 35.48C63.2755 32.24 59.7955 30.56 54.8755 30.44C49.9555 30.56 46.4755 32.24 44.4355 35.48C42.3955 38.6 41.2555 42.56 41.0155 47.36C40.8955 50.6 40.7755 54.32 40.6555 58.52C40.6555 62.6 40.6555 66.68 40.6555 70.76C40.7755 74.84 40.8955 78.62 41.0155 82.1C41.2555 87.14 42.3955 91.22 44.4355 94.34C46.5955 97.46 50.0755 99.02 54.8755 99.02ZM167.955 128C166.635 128 165.495 127.58 164.535 126.74C163.695 125.78 163.275 124.64 163.275 123.32V44.12L140.775 61.4C139.575 62.12 138.375 62.36 137.175 62.12C136.095 61.88 135.075 61.16 134.115 59.96L120.975 42.86C120.375 41.78 120.135 40.58 120.255 39.26C120.495 37.94 121.215 36.92 122.415 36.2L164.895 3.26C165.495 2.78 166.095 2.48 166.695 2.36C167.295 2.11999 168.015 1.99999 168.855 1.99999H197.115C198.435 1.99999 199.575 2.47999 200.535 3.43999C201.495 4.27999 201.975 5.35999 201.975 6.68V123.32C201.975 124.64 201.495 125.78 200.535 126.74C199.575 127.58 198.435 128 197.115 128H167.955Z" fill="white"/>
</svg>
