<svg width="17" height="16" viewBox="0 0 17 16" fill="none" xmlns="http://www.w3.org/2000/svg">
<g clip-path="url(#clip0)">
<path d="M16.5368 14.3L13.4368 11.2C14.3368 10 14.8368 8.6 14.8368 7C14.8368 3.1 11.7368 0 7.83676 0C3.93676 0 0.836761 3.1 0.836761 7C0.836761 10.9 3.93676 14 7.83676 14C9.43676 14 10.8368 13.5 12.0368 12.6L15.1368 15.7C15.3368 15.9 15.5368 16 15.8368 16C16.4368 16 16.8368 15.6 16.8368 15C16.8368 14.8 16.7368 14.5 16.5368 14.3ZM2.83676 7C2.83676 4.2 5.03676 2 7.83676 2C10.6368 2 12.8368 4.2 12.8368 7C12.8368 9.8 10.6368 12 7.83676 12C5.03676 12 2.83676 9.8 2.83676 7Z" fill="black"/>
</g>
<defs>
<clipPath id="clip0">
<rect width="16" height="16" fill="white" transform="translate(0.836761)"/>
</clipPath>
</defs>
</svg>
