<svg width="41" height="40" fill="none" xmlns="http://www.w3.org/2000/svg"><circle cx="20.837" cy="20" r="20" fill="#fff" fill-opacity=".3"/><g clip-path="url(#clip0)" fill="#444"><path d="M20.837 22a2 2 0 100-4 2 2 0 000 4z"/><path d="M27.537 13.3c-.9-.9-2-1.3-3.4-1.3h-6.6c-2.8 0-4.7 1.9-4.7 4.7v6.6c0 1.4.4 2.6 1.4 3.4.9.9 2 1.3 3.3 1.3h6.6c1.4 0 2.6-.4 3.4-1.3.8-.9 1.3-2 1.3-3.4v-6.6c0-1.4-.4-2.6-1.3-3.4zm-6.7 10.8c-2.2 0-4.1-1.8-4.1-4.1s1.9-4.1 4.1-4.1c2.2 0 4.1 1.8 4.1 4.1s-1.9 4.1-4.1 4.1zm4.6-7.4c-.7 0-1.3-.5-1.3-1.3s.5-1.3 1.3-1.3c.7 0 1.3.6 1.3 1.3 0 .7-.6 1.3-1.3 1.3z"/></g><defs><clipPath id="clip0"><path fill="#fff" transform="translate(12.837 12)" d="M0 0h16v16H0z"/></clipPath></defs></svg>